<svg xmlns="http://www.w3.org/2000/svg" viewBox="0 0 79 79"><circle cx="39.5" cy="39.5" r="39.5" fill="#e1e1e1"/><path d="M43.1 43.5c1-.3 2.2 2 3.5 2.9 1 .7 1.7.5 1.7.5l3.5-.1s1.8-.1 1-1.6c-.1-.1-.5-1.1-2.6-3-2.2-2-1.9-1.7.7-5.2 1.6-2.2 2.2-3.5 2-4-.2-.5-1.4-.4-1.4-.4h-3.9c-.4 0-.7.1-.9.5 0 0-.6 1.7-1.4 3.1-1.7 3-2.4 3.1-2.7 3-.7-.4-.5-1.7-.5-2.7 0-2.9.4-4.1-.8-4.4-.4-.1-.7-.2-1.8-.2-1.4 0-2.6 0-3.2.3-.4.2-.8.7-.6.7.3 0 .8.2 1.2.6.4.6.4 1.8.4 1.8s.2 3.4-.5 3.8c-.5.3-1.2-.3-2.8-3-.8-1.4-1.4-2.9-1.4-2.9s-.1-.3-.3-.4c-.2-.2-.6-.2-.6-.2H28s-.6 0-.8.3c-.2.2 0 .7 0 .7S30 40.5 33.3 44c3 3.2 6.5 3 6.5 3h1.6s.5-.1.7-.3c.2-.2.2-.7.2-.7s-.1-2.2.8-2.5z" fill="#fff"/></svg>